<svg xmlns="http://www.w3.org/2000/svg" version="1.1" xmlns:xlink="http://www.w3.org/1999/xlink" xmlns:svgjs="http://svgjs.dev/svgjs" width="1500" height="242" viewBox="0 0 1500 242"><g transform="matrix(1,0,0,1,-0.9090909090909918,-0.3640120911137501)"><svg viewBox="0 0 396 64" data-background-color="#162836" preserveAspectRatio="xMidYMid meet" height="242" width="1500" xmlns="http://www.w3.org/2000/svg" xmlns:xlink="http://www.w3.org/1999/xlink"><g id="tight-bounds" transform="matrix(1,0,0,1,0.2400000000000091,0.44463446931311523)"><svg viewBox="0 0 395.52 63.110360170105466" height="63.110360170105466" width="395.52"><g><svg viewBox="0 0 569.8333024530455 90.92431471160079" height="63.110360170105466" width="395.52"><g><rect width="5.933175495358134" height="78.95020090732339" x="411.0518730244977" y="5.987056902138697" fill="#cf7650" opacity="1" stroke-width="0" stroke="transparent" fill-opacity="1" class="rect-yte-0" data-fill-palette-color="primary" rx="1%" id="yte-0" data-palette-color="#cf7650"></rect></g><g transform="matrix(1,0,0,1,0,12.56624031108231)"><svg viewBox="0 0 395.52 65.79183408943616" height="65.79183408943616" width="395.52"><g id="textblocktransform"><svg viewBox="0 0 395.52 65.79183408943616" height="65.79183408943616" width="395.52" id="textblock"><g><svg viewBox="0 0 395.52 65.79183408943616" height="65.79183408943616" width="395.52"><g transform="matrix(1,0,0,1,0,0)"><svg width="395.52" viewBox="3.3 -38 231.42999999999998 38.5" height="65.79183408943616" data-palette-color="#cf7650"><path d="M18.25 0.5L18.25 0.5Q13 0.5 9.7-1.85 6.4-4.2 4.85-8.33 3.3-12.45 3.3-17.85L3.3-17.85Q3.3-22.1 4.3-25.48 5.3-28.85 7.25-31.25 9.2-33.65 12-34.93 14.8-36.2 18.45-36.2L18.45-36.2Q21.05-36.2 23.33-35.65 25.6-35.1 27.5-34.1L27.5-34.1 25.8-30.45Q24.25-31.3 22.28-31.75 20.3-32.2 18.45-32.2L18.45-32.2Q15.9-32.2 13.93-31.25 11.95-30.3 10.63-28.48 9.3-26.65 8.6-23.98 7.9-21.3 7.9-17.85L7.9-17.85Q7.9-13.45 8.97-10.25 10.05-7.05 12.35-5.35 14.65-3.65 18.35-3.65L18.35-3.65Q20.05-3.65 22.03-4.03 24-4.4 25.95-5.2L25.95-5.2 25.95-0.95Q23.95-0.2 22.13 0.15 20.3 0.5 18.25 0.5ZM45.05 0.5L45.05 0.5Q42.45 0.5 40.2-0.35 37.95-1.2 36.27-2.95 34.6-4.7 33.67-7.33 32.75-9.95 32.75-13.5L32.75-13.5Q32.75-18.15 34.32-21.2 35.9-24.25 38.65-25.78 41.4-27.3 44.9-27.3L44.9-27.3Q48.4-27.3 51.2-25.78 54-24.25 55.62-21.18 57.25-18.1 57.25-13.35L57.25-13.35Q57.25-9.85 56.32-7.25 55.4-4.65 53.77-2.93 52.15-1.2 49.92-0.35 47.7 0.5 45.05 0.5ZM45-3.15L45-3.15Q47.6-3.15 49.3-4.4 51-5.65 51.85-7.98 52.7-10.3 52.7-13.45L52.7-13.45Q52.7-16.65 51.85-18.93 51-21.2 49.27-22.43 47.55-23.65 44.95-23.65L44.95-23.65Q41.05-23.65 39.12-20.93 37.2-18.2 37.2-13.45L37.2-13.45Q37.2-10.3 38.07-7.98 38.95-5.65 40.67-4.4 42.4-3.15 45-3.15ZM85.75 0L65.75 0 65.75-35.7 70.25-35.7 70.25-4.15 85.75-4.15 85.75 0ZM116.99 0L93.99 0 93.99-3 103.54-3.75 103.54-23.05 94.79-23.7 94.79-26.8 108.04-26.8 108.04-3.75 116.99-3 116.99 0ZM105.34-31.65L105.34-31.65Q104.04-31.65 103.12-32.45 102.19-33.25 102.19-34.8L102.19-34.8Q102.19-36.45 103.12-37.23 104.04-38 105.34-38L105.34-38Q106.64-38 107.57-37.23 108.49-36.45 108.49-34.8L108.49-34.8Q108.49-33.25 107.57-32.45 106.64-31.65 105.34-31.65ZM136.44 0.5L136.44 0.5Q133.49 0.5 131.47-0.68 129.44-1.85 128.29-3.4L128.29-3.4 127.99-3.4 127.59 0 123.99 0 123.99-38 128.34-38 128.34-28.8Q128.34-27.4 128.31-26.05 128.29-24.7 128.14-23.3L128.14-23.3 128.34-23.3Q129.39-24.9 131.39-26.1 133.39-27.3 136.44-27.3L136.44-27.3Q138.84-27.3 140.84-26.43 142.84-25.55 144.27-23.8 145.69-22.05 146.47-19.45 147.24-16.85 147.24-13.45L147.24-13.45Q147.24-10 146.47-7.4 145.69-4.8 144.24-3.03 142.79-1.25 140.81-0.38 138.84 0.5 136.44 0.5ZM135.59-3.15L135.59-3.15Q139.24-3.15 140.94-5.8 142.64-8.45 142.64-13.45L142.64-13.45Q142.64-18.35 140.94-21 139.24-23.65 135.54-23.65L135.54-23.65Q132.09-23.65 130.22-21.03 128.34-18.4 128.34-13.55L128.34-13.55Q128.34-8.5 130.12-5.83 131.89-3.15 135.59-3.15ZM173.59 0L153.09 0 153.09-3 161.24-3.75 161.24-23.05 153.89-23.7 153.89-26.8 164.84-26.8 165.44-21.9 165.64-21.9Q167.04-24.55 168.71-25.93 170.39-27.3 173.14-27.3L173.14-27.3Q174.84-27.3 176.16-27 177.49-26.7 178.59-26.2L178.59-26.2 177.39-22.25Q176.59-22.7 175.49-23.03 174.39-23.35 173.14-23.35L173.14-23.35Q170.99-23.35 169.34-22 167.69-20.65 166.74-18.4 165.79-16.15 165.79-13.45L165.79-13.45 165.79-3.75 173.59-3 173.59 0ZM206.99 0L183.99 0 183.99-3 193.54-3.75 193.54-23.05 184.79-23.7 184.79-26.8 198.04-26.8 198.04-3.75 206.99-3 206.99 0ZM195.34-31.65L195.34-31.65Q194.04-31.65 193.11-32.45 192.19-33.25 192.19-34.8L192.19-34.8Q192.19-36.45 193.11-37.23 194.04-38 195.34-38L195.34-38Q196.64-38 197.56-37.23 198.49-36.45 198.49-34.8L198.49-34.8Q198.49-33.25 197.56-32.45 196.64-31.65 195.34-31.65ZM223.93 0.5L223.93 0.5Q221.43 0.5 219.16 0.05 216.88-0.4 215.23-1.2L215.23-1.2 215.23-5.35Q216.98-4.55 219.11-3.88 221.23-3.2 224.18-3.2L224.18-3.2Q227.48-3.2 228.86-4.23 230.23-5.25 230.23-7.2L230.23-7.2Q230.23-8.25 229.76-8.93 229.28-9.6 227.93-10.3 226.58-11 223.98-12.1L223.98-12.1Q221.38-13.25 219.53-14.25 217.68-15.25 216.68-16.63 215.68-18 215.68-20.15L215.68-20.15Q215.68-22.55 216.91-24.13 218.13-25.7 220.46-26.5 222.78-27.3 225.98-27.3L225.98-27.3Q228.18-27.3 230.18-26.9 232.18-26.5 234.33-25.6L234.33-25.6 232.98-22.1Q230.98-22.95 229.31-23.25 227.63-23.55 225.98-23.55L225.98-23.55Q222.88-23.55 221.46-22.75 220.03-21.95 220.03-20.25L220.03-20.25Q220.03-19.15 220.66-18.4 221.28-17.65 222.71-16.95 224.13-16.25 226.48-15.25L226.48-15.25Q229.13-14.15 230.98-13.2 232.83-12.25 233.78-10.93 234.73-9.6 234.73-7.3L234.73-7.3Q234.73-4.75 233.51-3.03 232.28-1.3 229.88-0.4 227.48 0.5 223.93 0.5Z" opacity="1" transform="matrix(1,0,0,1,0,0)" fill="#cf7650" class="wordmark-text-0" data-fill-palette-color="primary" id="text-0"></path></svg></g></svg></g></svg></g></svg></g><g transform="matrix(1,0,0,1,432.5169215443535,0)"><svg viewBox="0 0 137.31638090869185 90.92431471160079" height="90.92431471160079" width="137.31638090869185"><g><svg xmlns="http://www.w3.org/2000/svg" xmlns:xlink="http://www.w3.org/1999/xlink" version="1.1" x="0" y="0" viewBox="6.624499936131425 27.17477068190952 86.91845928745929 57.55323067941535" enable-background="new 0 0 100 100" xml:space="preserve" height="90.92431471160079" width="137.31638090869185" class="icon-icon-0" data-fill-palette-color="accent" id="icon-0"><g fill="#d5a187" data-fill-palette-color="accent"><path d="M26.645 44.262L8.624 44.258A2 2 0 0 1 8.625 40.258L26.645 40.262A2 2 0 0 1 26.645 44.262" fill="#d5a187" data-fill-palette-color="accent"></path></g><g fill="#d5a187" data-fill-palette-color="accent"><path d="M85.599 84.728A2 2 0 0 1 84.805 84.563L68.421 77.462C66.597 77.809 61.252 78.503 47.679 78.503 40.852 78.503 34.873 75.644 30.391 70.234 24.403 63.006 22.462 52.923 23.64 46.698 26.015 34.144 32.071 28.184 42.167 28.465 47.789 28.627 53.955 33.87 59.083 42.85A2 2 0 1 1 55.61 44.834C51.254 37.207 46.185 32.583 42.052 32.463 34.058 32.217 29.572 36.855 27.57 47.441 26.591 52.619 28.326 61.471 33.47 67.681 37.22 72.207 42.001 74.502 47.678 74.502 64.176 74.502 67.997 73.467 68.032 73.457A2 2 0 0 1 69.416 73.533L78.718 77.564C75.494 73.631 71.305 68.439 67.581 63.563A2.001 2.001 0 0 1 70.761 61.135C78.004 70.62 87.037 81.328 87.128 81.436A2 2 0 0 1 85.599 84.728" fill="#d5a187" data-fill-palette-color="accent"></path></g><g fill="#d5a187" data-fill-palette-color="accent"><circle cx="39.471" cy="41.128" r="2.5" fill="#d5a187" data-fill-palette-color="accent"></circle></g><g fill="#d5a187" data-fill-palette-color="accent"><path d="M56.39 64.107C51.792 64.107 48.901 63.504 48.672 63.456A2 2 0 1 1 49.516 59.546C49.613 59.567 59.65 61.616 72.262 57.616 84.197 53.826 88.159 37.275 89.222 31.241H73.997C73.258 31.241 72.562 31.218 71.91 31.196 67.845 31.061 66.997 31.031 66.364 37.089 65.231 47.971 49.834 48.756 49.179 48.783A2.01 2.01 0 0 1 47.095 46.87 2 2 0 0 1 49.005 44.787C49.179 44.779 61.61 44.115 62.385 36.674 63.334 27.587 66.837 27.026 72.043 27.198A56 56 0 0 0 73.996 27.24H91.543A2 2 0 0 1 93.532 29.449C93.419 30.531 90.561 56 73.47 61.428 66.775 63.554 60.798 64.106 56.39 64.107" fill="#d5a187" data-fill-palette-color="accent"></path></g><g fill="#d5a187" data-fill-palette-color="accent"><path d="M72.301 61.141A2 2 0 0 1 70.542 60.097L65.59 50.997A2 2 0 0 1 69.104 49.085L74.056 58.185A2 2 0 0 1 72.301 61.141" fill="#d5a187" data-fill-palette-color="accent"></path></g><g fill="#d5a187" data-fill-palette-color="accent"><path d="M88.925 41.711H73.431A2 2 0 0 1 73.431 37.711H88.925A2 2 0 0 1 88.925 41.711" fill="#d5a187" data-fill-palette-color="accent"></path></g><g fill="#d5a187" data-fill-palette-color="accent"><path d="M55.887 61.806A2 2 0 0 1 53.887 59.806V53.58A2 2 0 0 1 57.887 53.58V59.806A2 2 0 0 1 55.887 61.806" fill="#d5a187" data-fill-palette-color="accent"></path></g></svg></g></svg></g></svg></g><defs></defs></svg><rect width="395.52" height="63.110360170105466" fill="none" stroke="none" visibility="hidden"></rect></g></svg></g></svg>